<svg xmlns="http://www.w3.org/2000/svg" xmlns:xlink="http://www.w3.org/1999/xlink" viewBox="0 0 100.73 104.15"><defs><style>.cls-1{isolation:isolate;}.cls-2{fill:url(#linear-gradient);}.cls-3{fill:url(#linear-gradient-2);}.cls-4{fill:url(#linear-gradient-3);}.cls-5{fill:url(#linear-gradient-4);}.cls-6{mix-blend-mode:multiply;fill:url(#linear-gradient-5);}</style><linearGradient id="linear-gradient" x1="159.16" y1="377.5" x2="159.16" y2="404.17" gradientUnits="userSpaceOnUse"><stop offset="0" stop-color="#2b6490"/><stop offset="0.01" stop-color="#2b648f"/><stop offset="0.41" stop-color="#1a5072"/><stop offset="0.75" stop-color="#114460"/><stop offset="1" stop-color="#0d405a"/></linearGradient><linearGradient id="linear-gradient-2" x1="159.16" y1="385.17" x2="159.16" y2="347.83" gradientUnits="userSpaceOnUse"><stop offset="0" stop-color="#ffbf16"/><stop offset="0.51" stop-color="#f8b113"/><stop offset="1" stop-color="#f09f10"/></linearGradient><linearGradient id="linear-gradient-3" x1="50.37" y1="72.3" x2="50.37" y2="52.55" xlink:href="#linear-gradient"/><linearGradient id="linear-gradient-4" x1="159.16" y1="307.17" x2="159.16" y2="359.19" gradientUnits="userSpaceOnUse"><stop offset="0" stop-color="#0897f5"/><stop offset="0.23" stop-color="#20acf7"/><stop offset="0.49" stop-color="#35bef9"/><stop offset="0.75" stop-color="#42c9fa"/><stop offset="1" stop-color="#46cdfa"/></linearGradient><linearGradient id="linear-gradient-5" x1="50.37" y1="51.04" x2="50.37" y2="29.19" gradientUnits="userSpaceOnUse"><stop offset="0" stop-color="#f09f10"/><stop offset="0.2" stop-color="#f3a511" stop-opacity="0.82"/><stop offset="0.64" stop-color="#f9b314" stop-opacity="0.38"/><stop offset="1" stop-color="#ffbf16" stop-opacity="0"/></linearGradient></defs><title>3</title><g class="cls-1"><g id="OBJECTS"><path class="cls-2" d="M159.16,352.05l-50.37,31.82,50.37,31.81,50.36-31.81Zm-25.81,31.82,25.81-16.3,25.8,16.3-25.8,16.3Z" transform="translate(-108.79 -311.53)"/><path class="cls-3" d="M159.16,331.48l-50.37,31.81,50.37,31.82,50.36-31.82Zm-25.81,31.81L159.16,347l25.8,16.3-25.8,16.31Z" transform="translate(-108.79 -311.53)"/><polygon class="cls-4" points="72.17 54.29 59.88 62.05 50.37 56.03 40.84 62.05 28.57 54.29 50.37 40.52 72.17 54.29"/><path class="cls-5" d="M159.16,311.53l-50.37,31.82,50.37,31.81,50.36-31.81Zm-25.81,31.82,25.81-16.3,25.8,16.3-25.8,16.3Z" transform="translate(-108.79 -311.53)"/><polygon class="cls-6" points="72.67 34.03 60.38 41.79 50.37 35.45 40.34 41.79 28.07 34.03 50.37 19.94 72.67 34.03"/></g></g></svg>